<?xml version="1.0" encoding="utf-8"?>

<!-- Uploaded to: SVG Repo, www.svgrepo.com, Generator: SVG Repo Mixer Tools -->
<svg version="1.1" id="Icons" xmlns="http://www.w3.org/2000/svg" xmlns:xlink="http://www.w3.org/1999/xlink" 
	 viewBox="0 0 32 32" xml:space="preserve">
<style type="text/css">
	.st0{fill:none;stroke:#000000;stroke-width:2;stroke-linecap:round;stroke-linejoin:round;stroke-miterlimit:10;}
</style>
<path class="st0" d="M2,22l2.6-0.9c3.9-1.3,8.3-0.4,11.4,2.4l0,0c3.1,2.8,7.4,3.7,11.4,2.4L30,25"/>
<circle class="st0" cx="23" cy="12" r="4"/>
<path class="st0" d="M18,25l1-1c1.7-1.7,1.7-4.4,0-6l-7.5-7.5c-1.4-1.4-3.6-1.4-5,0l-4.4,4.4c-0.6,0.6-0.6,1.6,0,2.2l0,0
	c0.5,0.5,1.3,0.6,2,0.2L9,14l3,3l-3.5,3.5"/>
</svg>